<svg xmlns="http://www.w3.org/2000/svg" xmlns:xlink="http://www.w3.org/1999/xlink" width="500" zoomAndPan="magnify" viewBox="0 0 375 374.999991" height="500" preserveAspectRatio="xMidYMid meet" version="1.0"><defs><g/><clipPath id="83b5246c1f"><path d="M 48.601562 60.8125 L 161.101562 60.8125 L 161.101562 173.3125 L 48.601562 173.3125 Z M 48.601562 60.8125 " clip-rule="nonzero"/></clipPath><clipPath id="7596093cb7"><path d="M 143.851562 173.3125 L 65.851562 173.3125 C 61.277344 173.3125 56.886719 171.492188 53.652344 168.257812 C 50.417969 165.023438 48.601562 160.636719 48.601562 156.0625 L 48.601562 78.0625 C 48.601562 73.488281 50.417969 69.097656 53.652344 65.863281 C 56.886719 62.628906 61.277344 60.8125 65.851562 60.8125 L 143.851562 60.8125 C 148.425781 60.8125 152.8125 62.628906 156.046875 65.863281 C 159.28125 69.097656 161.101562 73.488281 161.101562 78.0625 L 161.101562 156.0625 C 161.101562 160.636719 159.28125 165.023438 156.046875 168.257812 C 152.8125 171.492188 148.425781 173.3125 143.851562 173.3125 Z M 143.851562 173.3125 " clip-rule="nonzero"/></clipPath><clipPath id="7090945e3e"><path d="M 33.59375 87.347656 L 146.09375 87.347656 L 146.09375 199.847656 L 33.59375 199.847656 Z M 33.59375 87.347656 " clip-rule="nonzero"/></clipPath><clipPath id="f102975742"><path d="M 128.84375 199.847656 L 50.84375 199.847656 C 46.269531 199.847656 41.882812 198.03125 38.648438 194.796875 C 35.410156 191.5625 33.59375 187.175781 33.59375 182.597656 L 33.59375 104.597656 C 33.59375 100.023438 35.410156 95.636719 38.648438 92.402344 C 41.882812 89.167969 46.269531 87.347656 50.84375 87.347656 L 128.84375 87.347656 C 133.417969 87.347656 137.808594 89.167969 141.042969 92.402344 C 144.277344 95.636719 146.09375 100.023438 146.09375 104.597656 L 146.09375 182.597656 C 146.09375 187.175781 144.277344 191.5625 141.042969 194.796875 C 137.808594 198.03125 133.417969 199.847656 128.84375 199.847656 Z M 128.84375 199.847656 " clip-rule="nonzero"/></clipPath><clipPath id="2d3d3a1846"><path d="M 0 143.597656 L 112.492188 143.597656 L 112.492188 256.097656 L 0 256.097656 Z M 0 143.597656 " clip-rule="nonzero"/></clipPath><clipPath id="c77063a735"><path d="M 95.242188 256.097656 L 17.242188 256.097656 C 12.667969 256.097656 8.277344 254.28125 5.042969 251.046875 C 1.808594 247.8125 -0.0078125 243.425781 -0.0078125 238.847656 L -0.0078125 160.847656 C -0.0078125 156.273438 1.808594 151.886719 5.042969 148.652344 C 8.277344 145.417969 12.667969 143.597656 17.242188 143.597656 L 95.242188 143.597656 C 99.816406 143.597656 104.203125 145.417969 107.4375 148.652344 C 110.671875 151.886719 112.492188 156.273438 112.492188 160.847656 L 112.492188 238.847656 C 112.492188 243.425781 110.671875 247.8125 107.4375 251.046875 C 104.203125 254.28125 99.816406 256.097656 95.242188 256.097656 Z M 95.242188 256.097656 " clip-rule="nonzero"/></clipPath><clipPath id="56354589de"><path d="M 16.761719 117.0625 L 129.261719 117.0625 L 129.261719 229.5625 L 16.761719 229.5625 Z M 16.761719 117.0625 " clip-rule="nonzero"/></clipPath><clipPath id="4e4759b4d0"><path d="M 112.011719 229.5625 L 34.011719 229.5625 C 29.4375 229.5625 25.050781 227.742188 21.816406 224.507812 C 18.582031 221.273438 16.761719 216.886719 16.761719 212.3125 L 16.761719 134.3125 C 16.761719 129.738281 18.582031 125.347656 21.816406 122.113281 C 25.050781 118.878906 29.4375 117.0625 34.011719 117.0625 L 112.011719 117.0625 C 116.585938 117.0625 120.976562 118.878906 124.210938 122.113281 C 127.445312 125.347656 129.261719 129.738281 129.261719 134.3125 L 129.261719 212.3125 C 129.261719 216.886719 127.445312 221.273438 124.210938 224.507812 C 120.976562 227.742188 116.585938 229.5625 112.011719 229.5625 Z M 112.011719 229.5625 " clip-rule="nonzero"/></clipPath><clipPath id="7ba50a00a9"><path d="M 16.761719 168.746094 L 129.261719 168.746094 L 129.261719 281.246094 L 16.761719 281.246094 Z M 16.761719 168.746094 " clip-rule="nonzero"/></clipPath><clipPath id="b5ec4199ae"><path d="M 112.011719 281.246094 L 34.011719 281.246094 C 29.4375 281.246094 25.050781 279.429688 21.816406 276.195312 C 18.582031 272.960938 16.761719 268.570312 16.761719 263.996094 L 16.761719 185.996094 C 16.761719 181.421875 18.582031 177.035156 21.816406 173.800781 C 25.050781 170.566406 29.4375 168.746094 34.011719 168.746094 L 112.011719 168.746094 C 116.585938 168.746094 120.976562 170.566406 124.210938 173.800781 C 127.445312 177.035156 129.261719 181.421875 129.261719 185.996094 L 129.261719 263.996094 C 129.261719 268.570312 127.445312 272.960938 124.210938 276.195312 C 120.976562 279.429688 116.585938 281.246094 112.011719 281.246094 Z M 112.011719 281.246094 " clip-rule="nonzero"/></clipPath><clipPath id="997f98bcf0"><path d="M 33.59375 199.847656 L 146.09375 199.847656 L 146.09375 312.347656 L 33.59375 312.347656 Z M 33.59375 199.847656 " clip-rule="nonzero"/></clipPath><clipPath id="805da8f179"><path d="M 128.84375 312.347656 L 50.84375 312.347656 C 46.269531 312.347656 41.882812 310.53125 38.648438 307.296875 C 35.410156 304.0625 33.59375 299.671875 33.59375 295.097656 L 33.59375 217.097656 C 33.59375 212.523438 35.410156 208.136719 38.648438 204.902344 C 41.882812 201.667969 46.269531 199.847656 50.84375 199.847656 L 128.84375 199.847656 C 133.417969 199.847656 137.808594 201.667969 141.042969 204.902344 C 144.277344 208.136719 146.09375 212.523438 146.09375 217.097656 L 146.09375 295.097656 C 146.09375 299.671875 144.277344 304.0625 141.042969 307.296875 C 137.808594 310.53125 133.417969 312.347656 128.84375 312.347656 Z M 128.84375 312.347656 " clip-rule="nonzero"/></clipPath><clipPath id="bb348196f9"><path d="M 48.601562 224.996094 L 161.101562 224.996094 L 161.101562 337.496094 L 48.601562 337.496094 Z M 48.601562 224.996094 " clip-rule="nonzero"/></clipPath><clipPath id="02fe3d3165"><path d="M 143.851562 337.496094 L 65.851562 337.496094 C 61.277344 337.496094 56.886719 335.679688 53.652344 332.445312 C 50.417969 329.210938 48.601562 324.820312 48.601562 320.246094 L 48.601562 242.246094 C 48.601562 237.671875 50.417969 233.285156 53.652344 230.050781 C 56.886719 226.816406 61.277344 224.996094 65.851562 224.996094 L 143.851562 224.996094 C 148.425781 224.996094 152.8125 226.816406 156.046875 230.050781 C 159.28125 233.285156 161.101562 237.671875 161.101562 242.246094 L 161.101562 320.246094 C 161.101562 324.820312 159.28125 329.210938 156.046875 332.445312 C 152.8125 335.679688 148.425781 337.496094 143.851562 337.496094 Z M 143.851562 337.496094 " clip-rule="nonzero"/></clipPath><clipPath id="3c3a4a3b25"><path d="M 213.335938 48.597656 L 325.835938 48.597656 L 325.835938 161.097656 L 213.335938 161.097656 Z M 213.335938 48.597656 " clip-rule="nonzero"/></clipPath><clipPath id="d4ab6422b8"><path d="M 213.335938 143.847656 L 213.335938 65.847656 C 213.335938 61.273438 215.152344 56.886719 218.390625 53.648438 C 221.625 50.414062 226.011719 48.597656 230.585938 48.597656 L 308.585938 48.597656 C 313.160156 48.597656 317.550781 50.414062 320.785156 53.648438 C 324.019531 56.886719 325.835938 61.273438 325.835938 65.847656 L 325.835938 143.847656 C 325.835938 148.421875 324.019531 152.808594 320.785156 156.046875 C 317.550781 159.28125 313.160156 161.097656 308.585938 161.097656 L 230.585938 161.097656 C 226.011719 161.097656 221.625 159.28125 218.390625 156.046875 C 215.152344 152.808594 213.335938 148.421875 213.335938 143.847656 Z M 213.335938 143.847656 " clip-rule="nonzero"/></clipPath><clipPath id="07d7752faf"><path d="M 186.800781 33.589844 L 299.300781 33.589844 L 299.300781 146.089844 L 186.800781 146.089844 Z M 186.800781 33.589844 " clip-rule="nonzero"/></clipPath><clipPath id="69f660e0e3"><path d="M 186.800781 128.839844 L 186.800781 50.839844 C 186.800781 46.265625 188.617188 41.878906 191.851562 38.644531 C 195.085938 35.410156 199.472656 33.589844 204.050781 33.589844 L 282.050781 33.589844 C 286.625 33.589844 291.011719 35.410156 294.246094 38.644531 C 297.480469 41.878906 299.300781 46.265625 299.300781 50.839844 L 299.300781 128.839844 C 299.300781 133.417969 297.480469 137.804688 294.246094 141.039062 C 291.011719 144.273438 286.625 146.089844 282.050781 146.089844 L 204.050781 146.089844 C 199.472656 146.089844 195.085938 144.273438 191.851562 141.039062 C 188.617188 137.804688 186.800781 133.417969 186.800781 128.839844 Z M 186.800781 128.839844 " clip-rule="nonzero"/></clipPath><clipPath id="55d6634501"><path d="M 130.550781 0 L 243.050781 0 L 243.050781 112.488281 L 130.550781 112.488281 Z M 130.550781 0 " clip-rule="nonzero"/></clipPath><clipPath id="bfca469a49"><path d="M 130.550781 95.238281 L 130.550781 17.238281 C 130.550781 12.664062 132.367188 8.277344 135.601562 5.039062 C 138.835938 1.804688 143.222656 -0.0117188 147.800781 -0.0117188 L 225.800781 -0.0117188 C 230.375 -0.0117188 234.761719 1.804688 237.996094 5.039062 C 241.230469 8.277344 243.050781 12.664062 243.050781 17.238281 L 243.050781 95.238281 C 243.050781 99.8125 241.230469 104.199219 237.996094 107.4375 C 234.761719 110.671875 230.375 112.488281 225.800781 112.488281 L 147.800781 112.488281 C 143.222656 112.488281 138.835938 110.671875 135.601562 107.4375 C 132.367188 104.199219 130.550781 99.8125 130.550781 95.238281 Z M 130.550781 95.238281 " clip-rule="nonzero"/></clipPath><clipPath id="04c4cba750"><path d="M 157.085938 16.761719 L 269.585938 16.761719 L 269.585938 129.261719 L 157.085938 129.261719 Z M 157.085938 16.761719 " clip-rule="nonzero"/></clipPath><clipPath id="762795303b"><path d="M 157.085938 112.011719 L 157.085938 34.011719 C 157.085938 29.433594 158.902344 25.046875 162.140625 21.8125 C 165.375 18.578125 169.761719 16.761719 174.335938 16.761719 L 252.335938 16.761719 C 256.910156 16.761719 261.300781 18.578125 264.535156 21.8125 C 267.769531 25.046875 269.585938 29.433594 269.585938 34.011719 L 269.585938 112.011719 C 269.585938 116.585938 267.769531 120.972656 264.535156 124.207031 C 261.300781 127.441406 256.910156 129.261719 252.335938 129.261719 L 174.335938 129.261719 C 169.761719 129.261719 165.375 127.441406 162.140625 124.207031 C 158.902344 120.972656 157.085938 116.585938 157.085938 112.011719 Z M 157.085938 112.011719 " clip-rule="nonzero"/></clipPath><clipPath id="a967c889ae"><path d="M 105.402344 16.761719 L 217.902344 16.761719 L 217.902344 129.261719 L 105.402344 129.261719 Z M 105.402344 16.761719 " clip-rule="nonzero"/></clipPath><clipPath id="b6571ef98f"><path d="M 105.402344 112.011719 L 105.402344 34.011719 C 105.402344 29.433594 107.21875 25.046875 110.453125 21.8125 C 113.6875 18.578125 118.074219 16.761719 122.652344 16.761719 L 200.652344 16.761719 C 205.226562 16.761719 209.613281 18.578125 212.847656 21.8125 C 216.082031 25.046875 217.902344 29.433594 217.902344 34.011719 L 217.902344 112.011719 C 217.902344 116.585938 216.082031 120.972656 212.847656 124.207031 C 209.613281 127.441406 205.226562 129.261719 200.652344 129.261719 L 122.652344 129.261719 C 118.074219 129.261719 113.6875 127.441406 110.453125 124.207031 C 107.21875 120.972656 105.402344 116.585938 105.402344 112.011719 Z M 105.402344 112.011719 " clip-rule="nonzero"/></clipPath><clipPath id="9eb4ced1dd"><path d="M 74.300781 33.589844 L 186.800781 33.589844 L 186.800781 146.089844 L 74.300781 146.089844 Z M 74.300781 33.589844 " clip-rule="nonzero"/></clipPath><clipPath id="bc88d0ac2f"><path d="M 74.300781 128.839844 L 74.300781 50.839844 C 74.300781 46.265625 76.117188 41.878906 79.351562 38.644531 C 82.585938 35.410156 86.972656 33.589844 91.550781 33.589844 L 169.550781 33.589844 C 174.125 33.589844 178.511719 35.410156 181.746094 38.644531 C 184.980469 41.878906 186.800781 46.265625 186.800781 50.839844 L 186.800781 128.839844 C 186.800781 133.417969 184.980469 137.804688 181.746094 141.039062 C 178.511719 144.273438 174.125 146.089844 169.550781 146.089844 L 91.550781 146.089844 C 86.972656 146.089844 82.585938 144.273438 79.351562 141.039062 C 76.117188 137.804688 74.300781 133.417969 74.300781 128.839844 Z M 74.300781 128.839844 " clip-rule="nonzero"/></clipPath><clipPath id="390d81d849"><path d="M 49.152344 48.597656 L 161.652344 48.597656 L 161.652344 161.097656 L 49.152344 161.097656 Z M 49.152344 48.597656 " clip-rule="nonzero"/></clipPath><clipPath id="c4d93453d9"><path d="M 49.152344 143.847656 L 49.152344 65.847656 C 49.152344 61.273438 50.96875 56.886719 54.203125 53.648438 C 57.4375 50.414062 61.824219 48.597656 66.402344 48.597656 L 144.402344 48.597656 C 148.976562 48.597656 153.363281 50.414062 156.597656 53.648438 C 159.832031 56.886719 161.652344 61.273438 161.652344 65.847656 L 161.652344 143.847656 C 161.652344 148.421875 159.832031 152.808594 156.597656 156.046875 C 153.363281 159.28125 148.976562 161.097656 144.402344 161.097656 L 66.402344 161.097656 C 61.824219 161.097656 57.4375 159.28125 54.203125 156.046875 C 50.96875 152.808594 49.152344 148.421875 49.152344 143.847656 Z M 49.152344 143.847656 " clip-rule="nonzero"/></clipPath><clipPath id="d021df8b20"><path d="M 213.335938 190.503906 L 325.835938 190.503906 L 325.835938 303.003906 L 213.335938 303.003906 Z M 213.335938 190.503906 " clip-rule="nonzero"/></clipPath><clipPath id="f7b8da68df"><path d="M 213.335938 285.753906 L 213.335938 207.753906 C 213.335938 203.179688 215.152344 198.792969 218.390625 195.558594 C 221.625 192.324219 226.011719 190.503906 230.585938 190.503906 L 308.585938 190.503906 C 313.160156 190.503906 317.550781 192.324219 320.785156 195.558594 C 324.019531 198.792969 325.835938 203.179688 325.835938 207.753906 L 325.835938 285.753906 C 325.835938 290.332031 324.019531 294.71875 320.785156 297.953125 C 317.550781 301.1875 313.160156 303.003906 308.585938 303.003906 L 230.585938 303.003906 C 226.011719 303.003906 221.625 301.1875 218.390625 297.953125 C 215.152344 294.71875 213.335938 290.332031 213.335938 285.753906 Z M 213.335938 285.753906 " clip-rule="nonzero"/></clipPath><clipPath id="643800d310"><path d="M 186.800781 175.5 L 299.300781 175.5 L 299.300781 288 L 186.800781 288 Z M 186.800781 175.5 " clip-rule="nonzero"/></clipPath><clipPath id="e4e07e00b4"><path d="M 186.800781 270.75 L 186.800781 192.75 C 186.800781 188.175781 188.617188 183.785156 191.851562 180.550781 C 195.085938 177.316406 199.472656 175.5 204.050781 175.5 L 282.050781 175.5 C 286.625 175.5 291.011719 177.316406 294.246094 180.550781 C 297.480469 183.785156 299.300781 188.175781 299.300781 192.75 L 299.300781 270.75 C 299.300781 275.324219 297.480469 279.710938 294.246094 282.945312 C 291.011719 286.179688 286.625 288 282.050781 288 L 204.050781 288 C 199.472656 288 195.085938 286.179688 191.851562 282.945312 C 188.617188 279.710938 186.800781 275.324219 186.800781 270.75 Z M 186.800781 270.75 " clip-rule="nonzero"/></clipPath><clipPath id="d2978ce78a"><path d="M 130.550781 141.894531 L 243.050781 141.894531 L 243.050781 254.394531 L 130.550781 254.394531 Z M 130.550781 141.894531 " clip-rule="nonzero"/></clipPath><clipPath id="10b21e6887"><path d="M 130.550781 237.144531 L 130.550781 159.144531 C 130.550781 154.570312 132.367188 150.183594 135.601562 146.949219 C 138.835938 143.714844 143.222656 141.894531 147.800781 141.894531 L 225.800781 141.894531 C 230.375 141.894531 234.761719 143.714844 237.996094 146.949219 C 241.230469 150.183594 243.050781 154.570312 243.050781 159.144531 L 243.050781 237.144531 C 243.050781 241.722656 241.230469 246.109375 237.996094 249.34375 C 234.761719 252.578125 230.375 254.394531 225.800781 254.394531 L 147.800781 254.394531 C 143.222656 254.394531 138.835938 252.578125 135.601562 249.34375 C 132.367188 246.109375 130.550781 241.722656 130.550781 237.144531 Z M 130.550781 237.144531 " clip-rule="nonzero"/></clipPath><clipPath id="c89086112f"><path d="M 157.085938 158.667969 L 269.585938 158.667969 L 269.585938 271.167969 L 157.085938 271.167969 Z M 157.085938 158.667969 " clip-rule="nonzero"/></clipPath><clipPath id="db875c41ef"><path d="M 157.085938 253.917969 L 157.085938 175.917969 C 157.085938 171.34375 158.902344 166.953125 162.140625 163.71875 C 165.375 160.484375 169.761719 158.667969 174.335938 158.667969 L 252.335938 158.667969 C 256.910156 158.667969 261.300781 160.484375 264.535156 163.71875 C 267.769531 166.953125 269.585938 171.34375 269.585938 175.917969 L 269.585938 253.917969 C 269.585938 258.492188 267.769531 262.878906 264.535156 266.113281 C 261.300781 269.351562 256.910156 271.167969 252.335938 271.167969 L 174.335938 271.167969 C 169.761719 271.167969 165.375 269.351562 162.140625 266.113281 C 158.902344 262.878906 157.085938 258.492188 157.085938 253.917969 Z M 157.085938 253.917969 " clip-rule="nonzero"/></clipPath><clipPath id="c25e9309b0"><path d="M 105.402344 158.667969 L 217.902344 158.667969 L 217.902344 271.167969 L 105.402344 271.167969 Z M 105.402344 158.667969 " clip-rule="nonzero"/></clipPath><clipPath id="4dceda4a0c"><path d="M 105.402344 253.917969 L 105.402344 175.917969 C 105.402344 171.34375 107.21875 166.953125 110.453125 163.71875 C 113.6875 160.484375 118.074219 158.667969 122.652344 158.667969 L 200.652344 158.667969 C 205.226562 158.667969 209.613281 160.484375 212.847656 163.71875 C 216.082031 166.953125 217.902344 171.34375 217.902344 175.917969 L 217.902344 253.917969 C 217.902344 258.492188 216.082031 262.878906 212.847656 266.113281 C 209.613281 269.351562 205.226562 271.167969 200.652344 271.167969 L 122.652344 271.167969 C 118.074219 271.167969 113.6875 269.351562 110.453125 266.113281 C 107.21875 262.878906 105.402344 258.492188 105.402344 253.917969 Z M 105.402344 253.917969 " clip-rule="nonzero"/></clipPath><clipPath id="87a3ce55a7"><path d="M 74.300781 175.5 L 186.800781 175.5 L 186.800781 288 L 74.300781 288 Z M 74.300781 175.5 " clip-rule="nonzero"/></clipPath><clipPath id="452eef7e07"><path d="M 74.300781 270.75 L 74.300781 192.75 C 74.300781 188.175781 76.117188 183.785156 79.351562 180.550781 C 82.585938 177.316406 86.972656 175.5 91.550781 175.5 L 169.550781 175.5 C 174.125 175.5 178.511719 177.316406 181.746094 180.550781 C 184.980469 183.785156 186.800781 188.175781 186.800781 192.75 L 186.800781 270.75 C 186.800781 275.324219 184.980469 279.710938 181.746094 282.945312 C 178.511719 286.179688 174.125 288 169.550781 288 L 91.550781 288 C 86.972656 288 82.585938 286.179688 79.351562 282.945312 C 76.117188 279.710938 74.300781 275.324219 74.300781 270.75 Z M 74.300781 270.75 " clip-rule="nonzero"/></clipPath><clipPath id="3efff0b50b"><path d="M 49.152344 190.503906 L 161.652344 190.503906 L 161.652344 303.003906 L 49.152344 303.003906 Z M 49.152344 190.503906 " clip-rule="nonzero"/></clipPath><clipPath id="96ecfcc626"><path d="M 49.152344 285.753906 L 49.152344 207.753906 C 49.152344 203.179688 50.96875 198.792969 54.203125 195.558594 C 57.4375 192.324219 61.824219 190.503906 66.402344 190.503906 L 144.402344 190.503906 C 148.976562 190.503906 153.363281 192.324219 156.597656 195.558594 C 159.832031 198.792969 161.652344 203.179688 161.652344 207.753906 L 161.652344 285.753906 C 161.652344 290.332031 159.832031 294.71875 156.597656 297.953125 C 153.363281 301.1875 148.976562 303.003906 144.402344 303.003906 L 66.402344 303.003906 C 61.824219 303.003906 57.4375 301.1875 54.203125 297.953125 C 50.96875 294.71875 49.152344 290.332031 49.152344 285.753906 Z M 49.152344 285.753906 " clip-rule="nonzero"/></clipPath><clipPath id="89107c5f25"><path d="M 213.894531 224.992188 L 326.394531 224.992188 L 326.394531 337.492188 L 213.894531 337.492188 Z M 213.894531 224.992188 " clip-rule="nonzero"/></clipPath><clipPath id="fd3f153922"><path d="M 231.144531 224.992188 L 309.144531 224.992188 C 313.71875 224.992188 318.105469 226.808594 321.339844 230.042969 C 324.574219 233.277344 326.394531 237.667969 326.394531 242.242188 L 326.394531 320.242188 C 326.394531 324.816406 324.574219 329.203125 321.339844 332.4375 C 318.105469 335.671875 313.71875 337.492188 309.144531 337.492188 L 231.144531 337.492188 C 226.570312 337.492188 222.179688 335.671875 218.945312 332.4375 C 215.710938 329.203125 213.894531 324.816406 213.894531 320.242188 L 213.894531 242.242188 C 213.894531 237.667969 215.710938 233.277344 218.945312 230.042969 C 222.179688 226.808594 226.570312 224.992188 231.144531 224.992188 Z M 231.144531 224.992188 " clip-rule="nonzero"/></clipPath><clipPath id="d420c5c956"><path d="M 228.898438 198.453125 L 341.398438 198.453125 L 341.398438 310.953125 L 228.898438 310.953125 Z M 228.898438 198.453125 " clip-rule="nonzero"/></clipPath><clipPath id="e9df3feded"><path d="M 246.148438 198.453125 L 324.148438 198.453125 C 328.726562 198.453125 333.113281 200.269531 336.347656 203.507812 C 339.582031 206.742188 341.398438 211.128906 341.398438 215.703125 L 341.398438 293.703125 C 341.398438 298.277344 339.582031 302.667969 336.347656 305.902344 C 333.113281 309.136719 328.726562 310.953125 324.148438 310.953125 L 246.148438 310.953125 C 241.574219 310.953125 237.1875 309.136719 233.953125 305.902344 C 230.71875 302.667969 228.898438 298.277344 228.898438 293.703125 L 228.898438 215.703125 C 228.898438 211.128906 230.71875 206.742188 233.953125 203.507812 C 237.1875 200.269531 241.574219 198.453125 246.148438 198.453125 Z M 246.148438 198.453125 " clip-rule="nonzero"/></clipPath><clipPath id="518ec8f440"><path d="M 262.503906 142.203125 L 375 142.203125 L 375 254.703125 L 262.503906 254.703125 Z M 262.503906 142.203125 " clip-rule="nonzero"/></clipPath><clipPath id="b298c47b07"><path d="M 279.753906 142.203125 L 357.753906 142.203125 C 362.328125 142.203125 366.714844 144.019531 369.949219 147.257812 C 373.183594 150.492188 375.003906 154.878906 375.003906 159.453125 L 375.003906 237.453125 C 375.003906 242.027344 373.183594 246.417969 369.949219 249.652344 C 366.714844 252.886719 362.328125 254.703125 357.753906 254.703125 L 279.753906 254.703125 C 275.179688 254.703125 270.789062 252.886719 267.554688 249.652344 C 264.320312 246.417969 262.503906 242.027344 262.503906 237.453125 L 262.503906 159.453125 C 262.503906 154.878906 264.320312 150.492188 267.554688 147.257812 C 270.789062 144.019531 275.179688 142.203125 279.753906 142.203125 Z M 279.753906 142.203125 " clip-rule="nonzero"/></clipPath><clipPath id="e8125de6ef"><path d="M 245.730469 168.742188 L 358.230469 168.742188 L 358.230469 281.242188 L 245.730469 281.242188 Z M 245.730469 168.742188 " clip-rule="nonzero"/></clipPath><clipPath id="17bdf68869"><path d="M 262.980469 168.742188 L 340.980469 168.742188 C 345.554688 168.742188 349.945312 170.558594 353.179688 173.792969 C 356.414062 177.027344 358.230469 181.417969 358.230469 185.992188 L 358.230469 263.992188 C 358.230469 268.566406 356.414062 272.953125 353.179688 276.1875 C 349.945312 279.421875 345.554688 281.242188 340.980469 281.242188 L 262.980469 281.242188 C 258.40625 281.242188 254.019531 279.421875 250.785156 276.1875 C 247.546875 272.953125 245.730469 268.566406 245.730469 263.992188 L 245.730469 185.992188 C 245.730469 181.417969 247.546875 177.027344 250.785156 173.792969 C 254.019531 170.558594 258.40625 168.742188 262.980469 168.742188 Z M 262.980469 168.742188 " clip-rule="nonzero"/></clipPath><clipPath id="777ba73b9e"><path d="M 245.730469 117.054688 L 358.230469 117.054688 L 358.230469 229.554688 L 245.730469 229.554688 Z M 245.730469 117.054688 " clip-rule="nonzero"/></clipPath><clipPath id="2b7a3fe70d"><path d="M 262.980469 117.054688 L 340.980469 117.054688 C 345.554688 117.054688 349.945312 118.871094 353.179688 122.109375 C 356.414062 125.34375 358.230469 129.730469 358.230469 134.304688 L 358.230469 212.304688 C 358.230469 216.878906 356.414062 221.269531 353.179688 224.503906 C 349.945312 227.738281 345.554688 229.554688 340.980469 229.554688 L 262.980469 229.554688 C 258.40625 229.554688 254.019531 227.738281 250.785156 224.503906 C 247.546875 221.269531 245.730469 216.878906 245.730469 212.304688 L 245.730469 134.304688 C 245.730469 129.730469 247.546875 125.34375 250.785156 122.109375 C 254.019531 118.871094 258.40625 117.054688 262.980469 117.054688 Z M 262.980469 117.054688 " clip-rule="nonzero"/></clipPath><clipPath id="63acd96c88"><path d="M 228.898438 85.953125 L 341.398438 85.953125 L 341.398438 198.453125 L 228.898438 198.453125 Z M 228.898438 85.953125 " clip-rule="nonzero"/></clipPath><clipPath id="6a8ade9e01"><path d="M 246.148438 85.953125 L 324.148438 85.953125 C 328.726562 85.953125 333.113281 87.769531 336.347656 91.007812 C 339.582031 94.242188 341.398438 98.628906 341.398438 103.203125 L 341.398438 181.203125 C 341.398438 185.777344 339.582031 190.167969 336.347656 193.402344 C 333.113281 196.636719 328.726562 198.453125 324.148438 198.453125 L 246.148438 198.453125 C 241.574219 198.453125 237.1875 196.636719 233.953125 193.402344 C 230.71875 190.167969 228.898438 185.777344 228.898438 181.203125 L 228.898438 103.203125 C 228.898438 98.628906 230.71875 94.242188 233.953125 91.007812 C 237.1875 87.769531 241.574219 85.953125 246.148438 85.953125 Z M 246.148438 85.953125 " clip-rule="nonzero"/></clipPath><clipPath id="8be24685c1"><path d="M 213.894531 60.804688 L 326.394531 60.804688 L 326.394531 173.304688 L 213.894531 173.304688 Z M 213.894531 60.804688 " clip-rule="nonzero"/></clipPath><clipPath id="2be418869b"><path d="M 231.144531 60.804688 L 309.144531 60.804688 C 313.71875 60.804688 318.105469 62.621094 321.339844 65.859375 C 324.574219 69.09375 326.394531 73.480469 326.394531 78.054688 L 326.394531 156.054688 C 326.394531 160.628906 324.574219 165.019531 321.339844 168.253906 C 318.105469 171.488281 313.71875 173.304688 309.144531 173.304688 L 231.144531 173.304688 C 226.570312 173.304688 222.179688 171.488281 218.945312 168.253906 C 215.710938 165.019531 213.894531 160.628906 213.894531 156.054688 L 213.894531 78.054688 C 213.894531 73.480469 215.710938 69.09375 218.945312 65.859375 C 222.179688 62.621094 226.570312 60.804688 231.144531 60.804688 Z M 231.144531 60.804688 " clip-rule="nonzero"/></clipPath></defs><g clip-path="url(#83b5246c1f)"><g clip-path="url(#7596093cb7)"><path stroke-linecap="butt" transform="matrix(-0.75, 0, 0, -0.75, 161.100476, 173.311438)" fill="none" stroke-linejoin="miter" d="M 22.998553 -0.00141571 L 126.99856 -0.00141571 C 133.097519 -0.00141571 138.951686 2.425668 143.264186 6.738168 C 147.576686 11.050668 149.998562 16.899627 149.998562 22.998586 L 149.998562 126.998593 C 149.998562 133.097551 147.576686 138.951718 143.264186 143.264219 C 138.951686 147.576719 133.097519 149.998594 126.99856 149.998594 L 22.998553 149.998594 C 16.899595 149.998594 11.050636 147.576719 6.738136 143.264219 C 2.425635 138.951718 -0.00144824 133.097551 -0.00144824 126.998593 L -0.00144824 22.998586 C -0.00144824 16.899627 2.425635 11.050668 6.738136 6.738168 C 11.050636 2.425668 16.899595 -0.00141571 22.998553 -0.00141571 Z M 22.998553 -0.00141571 " stroke="#5ce1e6" stroke-width="16" stroke-opacity="1" stroke-miterlimit="4"/></g></g><g clip-path="url(#7090945e3e)"><g clip-path="url(#f102975742)"><path stroke-linecap="butt" transform="matrix(-0.75, 0, 0, -0.75, 146.094223, 199.848853)" fill="none" stroke-linejoin="miter" d="M 23.000632 0.00159604 L 127.000639 0.00159604 C 133.099598 0.00159604 138.948556 2.423471 143.261057 6.735971 C 147.578765 11.048472 150.00064 16.89743 150.00064 23.001598 L 150.00064 127.001604 C 150.00064 133.100563 147.578765 138.949522 143.261057 143.262022 C 138.948556 147.574522 133.099598 150.001606 127.000639 150.001606 L 23.000632 150.001606 C 16.901673 150.001606 11.047506 147.574522 6.735006 143.262022 C 2.422506 138.949522 0.000630542 133.100563 0.000630542 127.001604 L 0.000630542 23.001598 C 0.000630542 16.89743 2.422506 11.048472 6.735006 6.735971 C 11.047506 2.423471 16.901673 0.00159604 23.000632 0.00159604 Z M 23.000632 0.00159604 " stroke="#5ce1e6" stroke-width="16" stroke-opacity="1" stroke-miterlimit="4"/></g></g><g clip-path="url(#2d3d3a1846)"><g clip-path="url(#c77063a735)"><path stroke-linecap="butt" transform="matrix(-0.75, 0, 0, -0.75, 112.491141, 256.09885)" fill="none" stroke-linejoin="miter" d="M 22.998606 0.00159111 L 126.998613 0.00159111 C 133.097572 0.00159111 138.951739 2.423466 143.264239 6.735967 C 147.57674 11.048467 149.998615 16.897426 149.998615 23.001593 L 149.998615 127.001599 C 149.998615 133.100558 147.57674 138.949517 143.264239 143.262017 C 138.951739 147.574517 133.097572 150.001601 126.998613 150.001601 L 22.998606 150.001601 C 16.899648 150.001601 11.050689 147.574517 6.738189 143.262017 C 2.425688 138.949517 -0.00139518 133.100558 -0.00139518 127.001599 L -0.00139518 23.001593 C -0.00139518 16.897426 2.425688 11.048467 6.738189 6.735967 C 11.050689 2.423466 16.899648 0.00159111 22.998606 0.00159111 Z M 22.998606 0.00159111 " stroke="#5ce1e6" stroke-width="16" stroke-opacity="1" stroke-miterlimit="4"/></g></g><g clip-path="url(#56354589de)"><g clip-path="url(#4e4759b4d0)"><path stroke-linecap="butt" transform="matrix(-0.75, 0, 0, -0.75, 129.26276, 229.561435)" fill="none" stroke-linejoin="miter" d="M 23.00139 -0.00142063 L 127.001397 -0.00142063 C 133.100355 -0.00142063 138.949314 2.425663 143.261814 6.738163 C 147.574315 11.050663 150.001398 16.899622 150.001398 22.998581 L 150.001398 126.998588 C 150.001398 133.097546 147.574315 138.951713 143.261814 143.264214 C 138.949314 147.576714 133.100355 149.998589 127.001397 149.998589 L 23.00139 149.998589 C 16.902431 149.998589 11.048264 147.576714 6.735764 143.264214 C 2.423264 138.951713 0.00138835 133.097546 0.00138835 126.998588 L 0.00138835 22.998581 C 0.00138835 16.899622 2.423264 11.050663 6.735764 6.738163 C 11.048264 2.425663 16.902431 -0.00142063 23.00139 -0.00142063 Z M 23.00139 -0.00142063 " stroke="#5ce1e6" stroke-width="16" stroke-opacity="1" stroke-miterlimit="4"/></g></g><g clip-path="url(#7ba50a00a9)"><g clip-path="url(#b5ec4199ae)"><path stroke-linecap="butt" transform="matrix(-0.75, 0, 0, -0.75, 129.26276, 281.24714)" fill="none" stroke-linejoin="miter" d="M 23.00139 0.00139491 L 127.001397 0.00139491 C 133.100355 0.00139491 138.949314 2.42327 143.261814 6.73577 C 147.574315 11.048271 150.001398 16.902438 150.001398 23.001396 L 150.001398 127.001403 C 150.001398 133.100362 147.574315 138.949321 143.261814 143.261821 C 138.949314 147.574321 133.100355 150.001405 127.001397 150.001405 L 23.00139 150.001405 C 16.902431 150.001405 11.048264 147.574321 6.735764 143.261821 C 2.423264 138.949321 0.00138835 133.100362 0.00138835 127.001403 L 0.00138835 23.001396 C 0.00138835 16.902438 2.423264 11.048271 6.735764 6.73577 C 11.048264 2.42327 16.902431 0.00139491 23.00139 0.00139491 Z M 23.00139 0.00139491 " stroke="#5ce1e6" stroke-width="16" stroke-opacity="1" stroke-miterlimit="4"/></g></g><g clip-path="url(#997f98bcf0)"><g clip-path="url(#805da8f179)"><path stroke-linecap="butt" transform="matrix(-0.75, 0, 0, -0.75, 146.094223, 312.348846)" fill="none" stroke-linejoin="miter" d="M 23.000632 0.00158619 L 127.000639 0.00158619 C 133.099598 0.00158619 138.948556 2.423461 143.261057 6.735962 C 147.578765 11.048462 150.00064 16.897421 150.00064 23.001588 L 150.00064 127.001595 C 150.00064 133.100553 147.578765 138.949512 143.261057 143.262012 C 138.948556 147.574513 133.099598 150.001596 127.000639 150.001596 L 23.000632 150.001596 C 16.901673 150.001596 11.047506 147.574513 6.735006 143.262012 C 2.422506 138.949512 0.000630542 133.100553 0.000630542 127.001595 L 0.000630542 23.001588 C 0.000630542 16.897421 2.422506 11.048462 6.735006 6.735962 C 11.047506 2.423461 16.901673 0.00158619 23.000632 0.00158619 Z M 23.000632 0.00158619 " stroke="#5ce1e6" stroke-width="16" stroke-opacity="1" stroke-miterlimit="4"/></g></g><g clip-path="url(#bb348196f9)"><g clip-path="url(#02fe3d3165)"><path stroke-linecap="butt" transform="matrix(-0.75, 0, 0, -0.75, 161.100476, 337.497136)" fill="none" stroke-linejoin="miter" d="M 22.998553 0.00138998 L 126.99856 0.00138998 C 133.097519 0.00138998 138.951686 2.423265 143.264186 6.735765 C 147.576686 11.048266 149.998562 16.902433 149.998562 23.001391 L 149.998562 127.001398 C 149.998562 133.100357 147.576686 138.949316 143.264186 143.261816 C 138.951686 147.574316 133.097519 150.0014 126.99856 150.0014 L 22.998553 150.0014 C 16.899595 150.0014 11.050636 147.574316 6.738136 143.261816 C 2.425635 138.949316 -0.00144824 133.100357 -0.00144824 127.001398 L -0.00144824 23.001391 C -0.00144824 16.902433 2.425635 11.048266 6.738136 6.735765 C 11.050636 2.423265 16.899595 0.00138998 22.998553 0.00138998 Z M 22.998553 0.00138998 " stroke="#5ce1e6" stroke-width="16" stroke-opacity="1" stroke-miterlimit="4"/></g></g><g clip-path="url(#3c3a4a3b25)"><g clip-path="url(#d4ab6422b8)"><path stroke-linecap="butt" transform="matrix(0, -0.75, 0.75, 0, 213.336816, 161.097645)" fill="none" stroke-linejoin="miter" d="M 22.999986 -0.00117145 L 126.999993 -0.00117145 C 133.098952 -0.00117145 138.94791 2.420704 143.265619 6.738412 C 147.578119 11.050913 149.999994 16.899871 149.999994 22.99883 L 149.999994 126.998837 C 149.999994 133.097796 147.578119 138.951963 143.265619 143.264463 C 138.94791 147.576963 133.098952 149.998838 126.999993 149.998838 L 22.999986 149.998838 C 16.901027 149.998838 11.052069 147.576963 6.73436 143.264463 C 2.42186 138.951963 -0.000015505 133.097796 -0.000015505 126.998837 L -0.000015505 22.99883 C -0.000015505 16.899871 2.42186 11.050913 6.73436 6.738412 C 11.052069 2.420704 16.901027 -0.00117145 22.999986 -0.00117145 Z M 22.999986 -0.00117145 " stroke="#5ce1e6" stroke-width="16" stroke-opacity="1" stroke-miterlimit="4"/></g></g><g clip-path="url(#07d7752faf)"><g clip-path="url(#69f660e0e3)"><path stroke-linecap="butt" transform="matrix(0, -0.75, 0.75, 0, 186.799401, 146.091391)" fill="none" stroke-linejoin="miter" d="M 23.002065 0.00184029 L 127.002072 0.00184029 C 133.10103 0.00184029 138.949989 2.423715 143.262489 6.736216 C 147.57499 11.048716 150.002073 16.897675 150.002073 23.001842 L 150.002073 127.001849 C 150.002073 133.100807 147.57499 138.949766 143.262489 143.262266 C 138.949989 147.574767 133.10103 150.00185 127.002072 150.00185 L 23.002065 150.00185 C 16.897898 150.00185 11.048939 147.574767 6.736439 143.262266 C 2.423938 138.949766 0.00206328 133.100807 0.00206328 127.001849 L 0.00206328 23.001842 C 0.00206328 16.897675 2.423938 11.048716 6.736439 6.736216 C 11.048939 2.423715 16.897898 0.00184029 23.002065 0.00184029 Z M 23.002065 0.00184029 " stroke="#5ce1e6" stroke-width="16" stroke-opacity="1" stroke-miterlimit="4"/></g></g><g clip-path="url(#55d6634501)"><g clip-path="url(#bfca469a49)"><path stroke-linecap="butt" transform="matrix(0, -0.75, 0.75, 0, 130.549405, 112.488309)" fill="none" stroke-linejoin="miter" d="M 23.000039 0.00183536 L 127.000046 0.00183536 C 133.099005 0.00183536 138.947963 2.423711 143.265672 6.736211 C 147.578172 11.048711 150.000047 16.89767 150.000047 23.001837 L 150.000047 127.001844 C 150.000047 133.100802 147.578172 138.949761 143.265672 143.262261 C 138.947963 147.574762 133.099005 150.001845 127.000046 150.001845 L 23.000039 150.001845 C 16.90108 150.001845 11.052122 147.574762 6.734413 143.262261 C 2.421913 138.949761 0.000037551 133.100802 0.000037551 127.001844 L 0.000037551 23.001837 C 0.000037551 16.89767 2.421913 11.048711 6.734413 6.736211 C 11.052122 2.423711 16.90108 0.00183536 23.000039 0.00183536 Z M 23.000039 0.00183536 " stroke="#5ce1e6" stroke-width="16" stroke-opacity="1" stroke-miterlimit="4"/></g></g><g clip-path="url(#04c4cba750)"><g clip-path="url(#762795303b)"><path stroke-linecap="butt" transform="matrix(0, -0.75, 0.75, 0, 157.086834, 129.259914)" fill="none" stroke-linejoin="miter" d="M 22.997595 -0.00119558 L 126.997602 -0.00119558 C 133.101769 -0.00119558 138.950728 2.42068 143.263228 6.738388 C 147.575728 11.050888 149.997603 16.899847 149.997603 22.998806 L 149.997603 126.998813 C 149.997603 133.097771 147.575728 138.951939 143.263228 143.264439 C 138.950728 147.576939 133.101769 149.998814 126.997602 149.998814 L 22.997595 149.998814 C 16.898636 149.998814 11.049678 147.576939 6.737177 143.264439 C 2.424677 138.951939 -0.00240645 133.097771 -0.00240645 126.998813 L -0.00240645 22.998806 C -0.00240645 16.899847 2.424677 11.050888 6.737177 6.738388 C 11.049678 2.42068 16.898636 -0.00119558 22.997595 -0.00119558 Z M 22.997595 -0.00119558 " stroke="#5ce1e6" stroke-width="16" stroke-opacity="1" stroke-miterlimit="4"/></g></g><g clip-path="url(#a967c889ae)"><g clip-path="url(#b6571ef98f)"><path stroke-linecap="butt" transform="matrix(0, -0.75, 0.75, 0, 105.401124, 129.259914)" fill="none" stroke-linejoin="miter" d="M 22.997595 0.00162636 L 126.997602 0.00162636 C 133.101769 0.00162636 138.950728 2.423502 143.263228 6.736002 C 147.575728 11.048502 149.997603 16.897461 149.997603 23.001628 L 149.997603 127.001635 C 149.997603 133.100593 147.575728 138.949552 143.263228 143.262052 C 138.950728 147.574553 133.101769 150.001636 126.997602 150.001636 L 22.997595 150.001636 C 16.898636 150.001636 11.049678 147.574553 6.737177 143.262052 C 2.424677 138.949552 -0.00240645 133.100593 -0.00240645 127.001635 L -0.00240645 23.001628 C -0.00240645 16.897461 2.424677 11.048502 6.737177 6.736002 C 11.049678 2.423502 16.898636 0.00162636 22.997595 0.00162636 Z M 22.997595 0.00162636 " stroke="#5ce1e6" stroke-width="16" stroke-opacity="1" stroke-miterlimit="4"/></g></g><g clip-path="url(#9eb4ced1dd)"><g clip-path="url(#bc88d0ac2f)"><path stroke-linecap="butt" transform="matrix(0, -0.75, 0.75, 0, 74.299416, 146.091391)" fill="none" stroke-linejoin="miter" d="M 23.002065 0.00182084 L 127.002072 0.00182084 C 133.10103 0.00182084 138.949989 2.423696 143.262489 6.736196 C 147.57499 11.048697 150.002073 16.897655 150.002073 23.001822 L 150.002073 127.001829 C 150.002073 133.100788 147.57499 138.949747 143.262489 143.262247 C 138.949989 147.574747 133.10103 150.001831 127.002072 150.001831 L 23.002065 150.001831 C 16.897898 150.001831 11.048939 147.574747 6.736439 143.262247 C 2.423938 138.949747 0.00206328 133.100788 0.00206328 127.001829 L 0.00206328 23.001822 C 0.00206328 16.897655 2.423938 11.048697 6.736439 6.736196 C 11.048939 2.423696 16.897898 0.00182084 23.002065 0.00182084 Z M 23.002065 0.00182084 " stroke="#5ce1e6" stroke-width="16" stroke-opacity="1" stroke-miterlimit="4"/></g></g><g clip-path="url(#390d81d849)"><g clip-path="url(#c4d93453d9)"><path stroke-linecap="butt" transform="matrix(0, -0.75, 0.75, 0, 49.151128, 161.097645)" fill="none" stroke-linejoin="miter" d="M 22.999986 0.00162144 L 126.999993 0.00162144 C 133.098952 0.00162144 138.94791 2.423497 143.265619 6.735997 C 147.578119 11.048497 149.999994 16.897456 149.999994 23.001623 L 149.999994 127.00163 C 149.999994 133.100589 147.578119 138.949547 143.265619 143.262048 C 138.94791 147.574548 133.098952 150.001631 126.999993 150.001631 L 22.999986 150.001631 C 16.901027 150.001631 11.052069 147.574548 6.73436 143.262048 C 2.42186 138.949547 -0.000015505 133.100589 -0.000015505 127.00163 L -0.000015505 23.001623 C -0.000015505 16.897456 2.42186 11.048497 6.73436 6.735997 C 11.052069 2.423497 16.901027 0.00162144 22.999986 0.00162144 Z M 22.999986 0.00162144 " stroke="#5ce1e6" stroke-width="16" stroke-opacity="1" stroke-miterlimit="4"/></g></g><g clip-path="url(#d021df8b20)"><g clip-path="url(#f7b8da68df)"><path stroke-linecap="butt" transform="matrix(0, -0.75, 0.75, 0, 213.336816, 303.005167)" fill="none" stroke-linejoin="miter" d="M 23.001682 -0.00117145 L 127.001689 -0.00117145 C 133.100647 -0.00117145 138.949606 2.420704 143.262106 6.738412 C 147.574607 11.050913 150.00169 16.899871 150.00169 22.99883 L 150.00169 126.998837 C 150.00169 133.097796 147.574607 138.951963 143.262106 143.264463 C 138.949606 147.576963 133.100647 149.998838 127.001689 149.998838 L 23.001682 149.998838 C 16.897515 149.998838 11.048556 147.576963 6.736056 143.264463 C 2.423555 138.951963 0.00168034 133.097796 0.00168034 126.998837 L 0.00168034 22.99883 C 0.00168034 16.899871 2.423555 11.050913 6.736056 6.738412 C 11.048556 2.420704 16.897515 -0.00117145 23.001682 -0.00117145 Z M 23.001682 -0.00117145 " stroke="#5ce1e6" stroke-width="16" stroke-opacity="1" stroke-miterlimit="4"/></g></g><g clip-path="url(#643800d310)"><g clip-path="url(#e4e07e00b4)"><path stroke-linecap="butt" transform="matrix(0, -0.75, 0.75, 0, 186.799401, 287.998867)" fill="none" stroke-linejoin="miter" d="M 22.998491 0.00184029 L 126.998498 0.00184029 C 133.097457 0.00184029 138.951624 2.423715 143.264124 6.736216 C 147.576625 11.048716 149.9985 16.897675 149.9985 23.001842 L 149.9985 127.001849 C 149.9985 133.100807 147.576625 138.949766 143.264124 143.262266 C 138.951624 147.574767 133.097457 150.00185 126.998498 150.00185 L 22.998491 150.00185 C 16.899533 150.00185 11.050574 147.574767 6.738074 143.262266 C 2.425573 138.949766 -0.00151002 133.100807 -0.00151002 127.001849 L -0.00151002 23.001842 C -0.00151002 16.897675 2.425573 11.048716 6.738074 6.736216 C 11.050574 2.423715 16.899533 0.00184029 22.998491 0.00184029 Z M 22.998491 0.00184029 " stroke="#5ce1e6" stroke-width="16" stroke-opacity="1" stroke-miterlimit="4"/></g></g><g clip-path="url(#d2978ce78a)"><g clip-path="url(#10b21e6887)"><path stroke-linecap="butt" transform="matrix(0, -0.75, 0.75, 0, 130.549405, 254.395824)" fill="none" stroke-linejoin="miter" d="M 23.001725 0.00183536 L 127.001732 0.00183536 C 133.100691 0.00183536 138.94965 2.423711 143.26215 6.736211 C 147.57465 11.048711 150.001734 16.89767 150.001734 23.001837 L 150.001734 127.001844 C 150.001734 133.100802 147.57465 138.949761 143.26215 143.262261 C 138.94965 147.574762 133.100691 150.001845 127.001732 150.001845 L 23.001725 150.001845 C 16.897558 150.001845 11.0486 147.574762 6.736099 143.262261 C 2.423599 138.949761 0.00172379 133.100802 0.00172379 127.001844 L 0.00172379 23.001837 C 0.00172379 16.89767 2.423599 11.048711 6.736099 6.736211 C 11.0486 2.423711 16.897558 0.00183536 23.001725 0.00183536 Z M 23.001725 0.00183536 " stroke="#5ce1e6" stroke-width="16" stroke-opacity="1" stroke-miterlimit="4"/></g></g><g clip-path="url(#c89086112f)"><g clip-path="url(#db875c41ef)"><path stroke-linecap="butt" transform="matrix(0, -0.75, 0.75, 0, 157.086834, 271.167405)" fill="none" stroke-linejoin="miter" d="M 22.999249 -0.00119558 L 126.999256 -0.00119558 C 133.098215 -0.00119558 138.952382 2.42068 143.264882 6.738388 C 147.577382 11.050888 149.999258 16.899847 149.999258 22.998806 L 149.999258 126.998813 C 149.999258 133.097771 147.577382 138.951939 143.264882 143.264439 C 138.952382 147.576939 133.098215 149.998814 126.999256 149.998814 L 22.999249 149.998814 C 16.900291 149.998814 11.051332 147.576939 6.738832 143.264439 C 2.421123 138.951939 -0.000752209 133.097771 -0.000752209 126.998813 L -0.000752209 22.998806 C -0.000752209 16.899847 2.421123 11.050888 6.738832 6.738388 C 11.051332 2.42068 16.900291 -0.00119558 22.999249 -0.00119558 Z M 22.999249 -0.00119558 " stroke="#5ce1e6" stroke-width="16" stroke-opacity="1" stroke-miterlimit="4"/></g></g><g clip-path="url(#c25e9309b0)"><g clip-path="url(#4dceda4a0c)"><path stroke-linecap="butt" transform="matrix(0, -0.75, 0.75, 0, 105.401124, 271.167405)" fill="none" stroke-linejoin="miter" d="M 22.999249 0.00162636 L 126.999256 0.00162636 C 133.098215 0.00162636 138.952382 2.423502 143.264882 6.736002 C 147.577382 11.048502 149.999258 16.897461 149.999258 23.001628 L 149.999258 127.001635 C 149.999258 133.100593 147.577382 138.949552 143.264882 143.262052 C 138.952382 147.574553 133.098215 150.001636 126.999256 150.001636 L 22.999249 150.001636 C 16.900291 150.001636 11.051332 147.574553 6.738832 143.262052 C 2.421123 138.949552 -0.000752209 133.100593 -0.000752209 127.001635 L -0.000752209 23.001628 C -0.000752209 16.897461 2.421123 11.048502 6.738832 6.736002 C 11.051332 2.423502 16.900291 0.00162636 22.999249 0.00162636 Z M 22.999249 0.00162636 " stroke="#5ce1e6" stroke-width="16" stroke-opacity="1" stroke-miterlimit="4"/></g></g><g clip-path="url(#87a3ce55a7)"><g clip-path="url(#452eef7e07)"><path stroke-linecap="butt" transform="matrix(0, -0.75, 0.75, 0, 74.299416, 287.998867)" fill="none" stroke-linejoin="miter" d="M 22.998491 0.00182084 L 126.998498 0.00182084 C 133.097457 0.00182084 138.951624 2.423696 143.264124 6.736196 C 147.576625 11.048697 149.9985 16.897655 149.9985 23.001822 L 149.9985 127.001829 C 149.9985 133.100788 147.576625 138.949747 143.264124 143.262247 C 138.951624 147.574747 133.097457 150.001831 126.998498 150.001831 L 22.998491 150.001831 C 16.899533 150.001831 11.050574 147.574747 6.738074 143.262247 C 2.425573 138.949747 -0.00151002 133.100788 -0.00151002 127.001829 L -0.00151002 23.001822 C -0.00151002 16.897655 2.425573 11.048697 6.738074 6.736196 C 11.050574 2.423696 16.899533 0.00182084 22.998491 0.00182084 Z M 22.998491 0.00182084 " stroke="#5ce1e6" stroke-width="16" stroke-opacity="1" stroke-miterlimit="4"/></g></g><g clip-path="url(#3efff0b50b)"><g clip-path="url(#96ecfcc626)"><path stroke-linecap="butt" transform="matrix(0, -0.75, 0.75, 0, 49.151128, 303.005167)" fill="none" stroke-linejoin="miter" d="M 23.001682 0.00162144 L 127.001689 0.00162144 C 133.100647 0.00162144 138.949606 2.423497 143.262106 6.735997 C 147.574607 11.048497 150.00169 16.897456 150.00169 23.001623 L 150.00169 127.00163 C 150.00169 133.100589 147.574607 138.949547 143.262106 143.262048 C 138.949606 147.574548 133.100647 150.001631 127.001689 150.001631 L 23.001682 150.001631 C 16.897515 150.001631 11.048556 147.574548 6.736056 143.262048 C 2.423555 138.949547 0.00168034 133.100589 0.00168034 127.00163 L 0.00168034 23.001623 C 0.00168034 16.897456 2.423555 11.048497 6.736056 6.735997 C 11.048556 2.423497 16.897515 0.00162144 23.001682 0.00162144 Z M 23.001682 0.00162144 " stroke="#5ce1e6" stroke-width="16" stroke-opacity="1" stroke-miterlimit="4"/></g></g><g clip-path="url(#89107c5f25)"><g clip-path="url(#fd3f153922)"><path stroke-linecap="butt" transform="matrix(0.75, 0, 0, 0.75, 213.893472, 224.991122)" fill="none" stroke-linejoin="miter" d="M 23.001414 0.00142063 L 127.001421 0.00142063 C 133.100379 0.00142063 138.949338 2.423296 143.261838 6.735796 C 147.574339 11.048296 150.001422 16.902463 150.001422 23.001422 L 150.001422 127.001429 C 150.001422 133.100388 147.574339 138.949346 143.261838 143.261847 C 138.949338 147.574347 133.100379 150.00143 127.001421 150.00143 L 23.001414 150.00143 C 16.902455 150.00143 11.048288 147.574347 6.735788 143.261847 C 2.423287 138.949346 0.00141226 133.100388 0.00141226 127.001429 L 0.00141226 23.001422 C 0.00141226 16.902463 2.423287 11.048296 6.735788 6.735796 C 11.048288 2.423296 16.902455 0.00142063 23.001414 0.00142063 Z M 23.001414 0.00142063 " stroke="#5ce1e6" stroke-width="16" stroke-opacity="1" stroke-miterlimit="4"/></g></g><g clip-path="url(#d420c5c956)"><g clip-path="url(#e9df3feded)"><path stroke-linecap="butt" transform="matrix(0.75, 0, 0, 0.75, 228.89974, 198.453721)" fill="none" stroke-linejoin="miter" d="M 22.998265 -0.000795158 L 126.998272 -0.000795158 C 133.102439 -0.000795158 138.951398 2.42108 143.263898 6.738789 C 147.576398 11.051289 149.998273 16.900248 149.998273 22.999206 L 149.998273 126.999213 C 149.998273 133.098172 147.576398 138.952339 143.263898 143.264839 C 138.951398 147.57734 133.102439 149.999215 126.998272 149.999215 L 22.998265 149.999215 C 16.899306 149.999215 11.050348 147.57734 6.737847 143.264839 C 2.425347 138.952339 -0.00173649 133.098172 -0.00173649 126.999213 L -0.00173649 22.999206 C -0.00173649 16.900248 2.425347 11.051289 6.737847 6.738789 C 11.050348 2.42108 16.899306 -0.000795158 22.998265 -0.000795158 Z M 22.998265 -0.000795158 " stroke="#5ce1e6" stroke-width="16" stroke-opacity="1" stroke-miterlimit="4"/></g></g><g clip-path="url(#518ec8f440)"><g clip-path="url(#b298c47b07)"><path stroke-linecap="butt" transform="matrix(0.75, 0, 0, 0.75, 262.502829, 142.203725)" fill="none" stroke-linejoin="miter" d="M 23.001438 -0.000800083 L 127.001445 -0.000800083 C 133.100404 -0.000800083 138.949362 2.421075 143.261863 6.738784 C 147.574363 11.051284 150.001446 16.900243 150.001446 22.999201 L 150.001446 126.999208 C 150.001446 133.098167 147.574363 138.952334 143.261863 143.264834 C 138.949362 147.577335 133.100404 149.99921 127.001445 149.99921 L 23.001438 149.99921 C 16.902479 149.99921 11.048312 147.577335 6.735812 143.264834 C 2.423312 138.952334 0.00143652 133.098167 0.00143652 126.999208 L 0.00143652 22.999201 C 0.00143652 16.900243 2.423312 11.051284 6.735812 6.738784 C 11.048312 2.421075 16.902479 -0.000800083 23.001438 -0.000800083 Z M 23.001438 -0.000800083 " stroke="#5ce1e6" stroke-width="16" stroke-opacity="1" stroke-miterlimit="4"/></g></g><g clip-path="url(#e8125de6ef)"><g clip-path="url(#17bdf68869)"><path stroke-linecap="butt" transform="matrix(0.75, 0, 0, 0.75, 245.73122, 168.741126)" fill="none" stroke-linejoin="miter" d="M 22.999 0.00141571 L 126.999007 0.00141571 C 133.097966 0.00141571 138.952133 2.423291 143.264633 6.735791 C 147.577134 11.048291 149.999009 16.902458 149.999009 23.001417 L 149.999009 127.001424 C 149.999009 133.100383 147.577134 138.949341 143.264633 143.261842 C 138.952133 147.574342 133.097966 150.001426 126.999007 150.001426 L 22.999 150.001426 C 16.900042 150.001426 11.051083 147.574342 6.738583 143.261842 C 2.420874 138.949341 -0.00100108 133.100383 -0.00100108 127.001424 L -0.00100108 23.001417 C -0.00100108 16.902458 2.420874 11.048291 6.738583 6.735791 C 11.051083 2.423291 16.900042 0.00141571 22.999 0.00141571 Z M 22.999 0.00141571 " stroke="#5ce1e6" stroke-width="16" stroke-opacity="1" stroke-miterlimit="4"/></g></g><g clip-path="url(#777ba73b9e)"><g clip-path="url(#2b7a3fe70d)"><path stroke-linecap="butt" transform="matrix(0.75, 0, 0, 0.75, 245.73122, 117.05543)" fill="none" stroke-linejoin="miter" d="M 22.999 -0.000989885 L 126.999007 -0.000989885 C 133.097966 -0.000989885 138.952133 2.420885 143.264633 6.738594 C 147.577134 11.051094 149.999009 16.900053 149.999009 22.999012 L 149.999009 126.999018 C 149.999009 133.097977 147.577134 138.952144 143.264633 143.264645 C 138.952133 147.577145 133.097966 149.99902 126.999007 149.99902 L 22.999 149.99902 C 16.900042 149.99902 11.051083 147.577145 6.738583 143.264645 C 2.420874 138.952144 -0.00100108 133.097977 -0.00100108 126.999018 L -0.00100108 22.999012 C -0.00100108 16.900053 2.420874 11.051094 6.738583 6.738594 C 11.051083 2.420885 16.900042 -0.000989885 22.999 -0.000989885 Z M 22.999 -0.000989885 " stroke="#5ce1e6" stroke-width="16" stroke-opacity="1" stroke-miterlimit="4"/></g></g><g clip-path="url(#63acd96c88)"><g clip-path="url(#6a8ade9e01)"><path stroke-linecap="butt" transform="matrix(0.75, 0, 0, 0.75, 228.89974, 85.953714)" fill="none" stroke-linejoin="miter" d="M 22.998265 -0.000785808 L 126.998272 -0.000785808 C 133.102439 -0.000785808 138.951398 2.421089 143.263898 6.738798 C 147.576398 11.051298 149.998273 16.900257 149.998273 22.999216 L 149.998273 126.999223 C 149.998273 133.098181 147.576398 138.952348 143.263898 143.264849 C 138.951398 147.577349 133.102439 149.999224 126.998272 149.999224 L 22.998265 149.999224 C 16.899306 149.999224 11.050348 147.577349 6.737847 143.264849 C 2.425347 138.952348 -0.00173649 133.098181 -0.00173649 126.999223 L -0.00173649 22.999216 C -0.00173649 16.900257 2.425347 11.051298 6.737847 6.738798 C 11.050348 2.421089 16.899306 -0.000785808 22.998265 -0.000785808 Z M 22.998265 -0.000785808 " stroke="#5ce1e6" stroke-width="16" stroke-opacity="1" stroke-miterlimit="4"/></g></g><g clip-path="url(#8be24685c1)"><g clip-path="url(#2be418869b)"><path stroke-linecap="butt" transform="matrix(0.75, 0, 0, 0.75, 213.893472, 60.805434)" fill="none" stroke-linejoin="miter" d="M 23.001414 -0.00099481 L 127.001421 -0.00099481 C 133.100379 -0.00099481 138.949338 2.42088 143.261838 6.738589 C 147.574339 11.051089 150.001422 16.900048 150.001422 22.999007 L 150.001422 126.999014 C 150.001422 133.097972 147.574339 138.952139 143.261838 143.26464 C 138.949338 147.57714 133.100379 149.999015 127.001421 149.999015 L 23.001414 149.999015 C 16.902455 149.999015 11.048288 147.57714 6.735788 143.26464 C 2.423287 138.952139 0.00141226 133.097972 0.00141226 126.999014 L 0.00141226 22.999007 C 0.00141226 16.900048 2.423287 11.051089 6.735788 6.738589 C 11.048288 2.42088 16.902455 -0.00099481 23.001414 -0.00099481 Z M 23.001414 -0.00099481 " stroke="#5ce1e6" stroke-width="16" stroke-opacity="1" stroke-miterlimit="4"/></g></g><g fill="#1e5de9" fill-opacity="1"><g transform="translate(126.011857, 254.215209)"><g><path d="M 110.234375 0 L 93.59375 -76 L 61.5625 6.28125 L 29.359375 -76 L 12.875 0 L 1.578125 0 L 26.53125 -113.84375 L 61.5625 -22.453125 L 96.578125 -113.84375 L 121.390625 0 Z M 110.234375 0 "/></g></g></g><g fill="#7090d6" fill-opacity="1"><g transform="translate(237.510328, 144.834359)"><g><path d="M -50.09375 -6.4375 L -1.578125 106.78125 L -13.5 106.78125 L -50.09375 20.734375 L -86.53125 106.78125 L -98.453125 106.78125 Z M -50.09375 -6.4375 "/></g></g></g></svg>